<svg width="200" height="77" viewBox="0 0 200 77" fill="none" xmlns="http://www.w3.org/2000/svg">
<path d="M5.11364 62V15.4545H22.1591C25.4621 15.4545 28.197 16 30.3636 17.0909C32.5303 18.1667 34.1515 19.6288 35.2273 21.4773C36.303 23.3106 36.8409 25.3788 36.8409 27.6818C36.8409 29.6212 36.4849 31.2576 35.7727 32.5909C35.0606 33.9091 34.1061 34.9697 32.9091 35.7727C31.7273 36.5606 30.4242 37.1364 29 37.5V37.9545C30.5455 38.0303 32.053 38.5303 33.5227 39.4545C35.0076 40.3636 36.2348 41.6591 37.2045 43.3409C38.1742 45.0227 38.6591 47.0682 38.6591 49.4773C38.6591 51.8561 38.0985 53.9924 36.9773 55.8864C35.8712 57.7652 34.1591 59.2576 31.8409 60.3636C29.5227 61.4545 26.5606 62 22.9545 62H5.11364ZM12.1364 55.9773H22.2727C25.6364 55.9773 28.0455 55.3258 29.5 54.0227C30.9545 52.7197 31.6818 51.0909 31.6818 49.1364C31.6818 47.6667 31.3106 46.3182 30.5682 45.0909C29.8258 43.8636 28.7652 42.8864 27.3864 42.1591C26.0227 41.4318 24.4015 41.0682 22.5227 41.0682H12.1364V55.9773ZM12.1364 35.5909H21.5455C23.1212 35.5909 24.5379 35.2879 25.7955 34.6818C27.0682 34.0758 28.0758 33.2273 28.8182 32.1364C29.5758 31.0303 29.9545 29.7273 29.9545 28.2273C29.9545 26.303 29.2803 24.6894 27.9318 23.3864C26.5833 22.0833 24.5152 21.4318 21.7273 21.4318H12.1364V35.5909ZM54.0252 62.5284C51.4457 62.5284 49.2241 61.9773 47.3605 60.875C45.5082 59.7614 44.0764 58.1989 43.065 56.1875C42.065 54.1648 41.565 51.7955 41.565 49.0795C41.565 46.3977 42.065 44.0341 43.065 41.9886C44.0764 39.9432 45.4855 38.3466 47.2923 37.1989C49.1105 36.0511 51.2355 35.4773 53.6673 35.4773C55.1445 35.4773 56.5764 35.7216 57.9627 36.2102C59.3491 36.6989 60.5934 37.4659 61.6957 38.5114C62.798 39.5568 63.6673 40.9148 64.3036 42.5852C64.94 44.2443 65.2582 46.2614 65.2582 48.6364V50.4432H44.4457V46.625H60.2639C60.2639 45.2841 59.9911 44.0966 59.4457 43.0625C58.9002 42.017 58.1332 41.1932 57.1445 40.5909C56.1673 39.9886 55.0195 39.6875 53.7014 39.6875C52.2695 39.6875 51.0195 40.0398 49.9514 40.7443C48.8945 41.4375 48.0764 42.3466 47.4968 43.4716C46.9286 44.5852 46.6445 45.7955 46.6445 47.1023V50.0852C46.6445 51.8352 46.9514 53.3239 47.565 54.5511C48.19 55.7784 49.0593 56.7159 50.173 57.3636C51.2866 58 52.5877 58.3182 54.0764 58.3182C55.0423 58.3182 55.923 58.1818 56.7184 57.9091C57.5139 57.625 58.2014 57.2045 58.7809 56.6477C59.3605 56.0909 59.8036 55.4034 60.1105 54.5852L64.9343 55.4545C64.548 56.875 63.8548 58.1193 62.8548 59.1875C61.8661 60.2443 60.6218 61.0682 59.1218 61.6591C57.6332 62.2386 55.9343 62.5284 54.0252 62.5284ZM68.993 62V35.8182H73.9191V39.9773H74.1919C74.6691 38.5682 75.5101 37.4602 76.7146 36.6534C77.9305 35.8352 79.3055 35.4261 80.8396 35.4261C81.1578 35.4261 81.5328 35.4375 81.9646 35.4602C82.4078 35.483 82.7544 35.5114 83.0044 35.5455V40.4205C82.7998 40.3636 82.4362 40.3011 81.9135 40.233C81.3907 40.1534 80.868 40.1136 80.3453 40.1136C79.1407 40.1136 78.0669 40.3693 77.1237 40.8807C76.1919 41.3807 75.4532 42.0795 74.9078 42.9773C74.3623 43.8636 74.0896 44.875 74.0896 46.0114V62H68.993ZM105.114 42.2102L100.495 43.0284C100.302 42.4375 99.9949 41.875 99.5744 41.3409C99.1653 40.8068 98.6085 40.3693 97.904 40.0284C97.1994 39.6875 96.3187 39.517 95.2619 39.517C93.8187 39.517 92.6142 39.8409 91.6483 40.4886C90.6824 41.125 90.1994 41.9489 90.1994 42.9602C90.1994 43.8352 90.5233 44.5398 91.171 45.0739C91.8187 45.608 92.8642 46.0455 94.3074 46.3864L98.4665 47.3409C100.876 47.8977 102.671 48.7557 103.853 49.9148C105.035 51.0739 105.626 52.5795 105.626 54.4318C105.626 56 105.171 57.3977 104.262 58.625C103.364 59.8409 102.109 60.7955 100.495 61.4886C98.8926 62.1818 97.0347 62.5284 94.921 62.5284C91.9892 62.5284 89.5972 61.9034 87.7449 60.6534C85.8926 59.392 84.7562 57.6023 84.3358 55.2841L89.2619 54.5341C89.5687 55.8182 90.1994 56.7898 91.154 57.4489C92.1085 58.0966 93.3528 58.4205 94.8869 58.4205C96.5574 58.4205 97.8926 58.0739 98.8926 57.3807C99.8926 56.6761 100.393 55.8182 100.393 54.8068C100.393 53.9886 100.086 53.3011 99.4722 52.7443C98.8699 52.1875 97.9437 51.767 96.6937 51.483L92.2619 50.5114C89.8187 49.9545 88.0119 49.0682 86.8415 47.8523C85.6824 46.6364 85.1028 45.0966 85.1028 43.233C85.1028 41.6875 85.5347 40.3352 86.3983 39.1761C87.2619 38.017 88.4551 37.1136 89.9778 36.4659C91.5006 35.8068 93.2449 35.4773 95.2108 35.4773C98.0403 35.4773 100.268 36.0909 101.893 37.3182C103.518 38.5341 104.591 40.1648 105.114 42.2102ZM116.929 62.5795C115.269 62.5795 113.769 62.2727 112.429 61.6591C111.088 61.0341 110.025 60.1307 109.241 58.9489C108.468 57.767 108.082 56.3182 108.082 54.6023C108.082 53.125 108.366 51.9091 108.934 50.9545C109.502 50 110.269 49.2443 111.235 48.6875C112.201 48.1307 113.281 47.7102 114.474 47.4261C115.667 47.142 116.883 46.9261 118.122 46.7784C119.69 46.5966 120.963 46.4489 121.94 46.3352C122.917 46.2102 123.627 46.0114 124.071 45.7386C124.514 45.4659 124.735 45.0227 124.735 44.4091V44.2898C124.735 42.8011 124.315 41.6477 123.474 40.8295C122.644 40.0114 121.406 39.6023 119.758 39.6023C118.042 39.6023 116.69 39.983 115.701 40.7443C114.724 41.4943 114.048 42.3295 113.673 43.25L108.883 42.1591C109.451 40.5682 110.281 39.2841 111.372 38.3068C112.474 37.3182 113.741 36.6023 115.173 36.1591C116.605 35.7045 118.11 35.4773 119.69 35.4773C120.735 35.4773 121.843 35.6023 123.014 35.8523C124.196 36.0909 125.298 36.5341 126.321 37.1818C127.355 37.8295 128.201 38.7557 128.86 39.9602C129.519 41.1534 129.849 42.7045 129.849 44.6136V62H124.872V58.4205H124.667C124.338 59.0795 123.843 59.7273 123.184 60.3636C122.525 61 121.679 61.5284 120.644 61.9489C119.61 62.3693 118.372 62.5795 116.929 62.5795ZM118.037 58.4886C119.446 58.4886 120.65 58.2102 121.65 57.6534C122.662 57.0966 123.429 56.3693 123.951 55.4716C124.485 54.5625 124.752 53.5909 124.752 52.5568V49.1818C124.571 49.3636 124.218 49.5341 123.696 49.6932C123.184 49.8409 122.599 49.9716 121.94 50.0852C121.281 50.1875 120.639 50.2841 120.014 50.375C119.389 50.4545 118.866 50.5227 118.446 50.5795C117.457 50.7045 116.554 50.9148 115.735 51.2102C114.929 51.5057 114.281 51.9318 113.792 52.4886C113.315 53.0341 113.076 53.7614 113.076 54.6705C113.076 55.9318 113.542 56.8864 114.474 57.5341C115.406 58.1705 116.593 58.4886 118.037 58.4886ZM134.717 62V35.8182H139.609V40.0795H139.933C140.479 38.6364 141.371 37.5114 142.609 36.7045C143.848 35.8864 145.331 35.4773 147.058 35.4773C148.808 35.4773 150.274 35.8864 151.456 36.7045C152.649 37.5227 153.53 38.6477 154.098 40.0795H154.371C154.996 38.6818 155.99 37.5682 157.354 36.7386C158.717 35.8977 160.342 35.4773 162.229 35.4773C164.604 35.4773 166.541 36.2216 168.041 37.7102C169.553 39.1989 170.308 41.4432 170.308 44.4432V62H165.212V44.9205C165.212 43.1477 164.729 41.8636 163.763 41.0682C162.797 40.2727 161.644 39.875 160.303 39.875C158.644 39.875 157.354 40.3864 156.433 41.4091C155.513 42.4205 155.053 43.7216 155.053 45.3125V62H149.973V44.5966C149.973 43.1761 149.53 42.0341 148.644 41.1705C147.757 40.3068 146.604 39.875 145.183 39.875C144.217 39.875 143.325 40.1307 142.507 40.642C141.7 41.142 141.047 41.8409 140.547 42.7386C140.058 43.6364 139.814 44.6761 139.814 45.858V62H134.717ZM182.839 62.5795C181.179 62.5795 179.679 62.2727 178.339 61.6591C176.998 61.0341 175.935 60.1307 175.151 58.9489C174.378 57.767 173.992 56.3182 173.992 54.6023C173.992 53.125 174.276 51.9091 174.844 50.9545C175.412 50 176.179 49.2443 177.145 48.6875C178.111 48.1307 179.191 47.7102 180.384 47.4261C181.577 47.142 182.793 46.9261 184.032 46.7784C185.6 46.5966 186.873 46.4489 187.85 46.3352C188.827 46.2102 189.537 46.0114 189.981 45.7386C190.424 45.4659 190.645 45.0227 190.645 44.4091V44.2898C190.645 42.8011 190.225 41.6477 189.384 40.8295C188.554 40.0114 187.316 39.6023 185.668 39.6023C183.952 39.6023 182.6 39.983 181.611 40.7443C180.634 41.4943 179.958 42.3295 179.583 43.25L174.793 42.1591C175.361 40.5682 176.191 39.2841 177.282 38.3068C178.384 37.3182 179.651 36.6023 181.083 36.1591C182.515 35.7045 184.02 35.4773 185.6 35.4773C186.645 35.4773 187.753 35.6023 188.924 35.8523C190.106 36.0909 191.208 36.5341 192.231 37.1818C193.265 37.8295 194.111 38.7557 194.77 39.9602C195.429 41.1534 195.759 42.7045 195.759 44.6136V62H190.782V58.4205H190.577C190.248 59.0795 189.753 59.7273 189.094 60.3636C188.435 61 187.589 61.5284 186.554 61.9489C185.52 62.3693 184.282 62.5795 182.839 62.5795ZM183.947 58.4886C185.356 58.4886 186.56 58.2102 187.56 57.6534C188.572 57.0966 189.339 56.3693 189.861 55.4716C190.395 54.5625 190.662 53.5909 190.662 52.5568V49.1818C190.481 49.3636 190.128 49.5341 189.606 49.6932C189.094 49.8409 188.509 49.9716 187.85 50.0852C187.191 50.1875 186.549 50.2841 185.924 50.375C185.299 50.4545 184.776 50.5227 184.356 50.5795C183.367 50.7045 182.464 50.9148 181.645 51.2102C180.839 51.5057 180.191 51.9318 179.702 52.4886C179.225 53.0341 178.986 53.7614 178.986 54.6705C178.986 55.9318 179.452 56.8864 180.384 57.5341C181.316 58.1705 182.503 58.4886 183.947 58.4886Z" fill="black"/>
<path d="M45.1705 30.2273C44.1241 30.2273 43.2599 29.9953 42.5781 29.5312C41.8963 29.0625 41.4205 28.4091 41.1506 27.571C40.8807 26.7282 40.8381 25.7481 41.0227 24.6307C41.2074 23.5133 41.5743 22.5284 42.1236 21.6761C42.6728 20.8191 43.357 20.1515 44.1761 19.6733C44.9953 19.1903 45.8949 18.9489 46.875 18.9489C47.4432 18.9489 47.9901 19.0436 48.5156 19.233C49.0412 19.4223 49.4957 19.7301 49.8793 20.1562C50.2628 20.5777 50.5303 21.1364 50.6818 21.8324C50.8333 22.5284 50.8239 23.3854 50.6534 24.4034L50.5398 25.1136H42.1307L42.358 23.6648H49.0625C49.1714 23.0492 49.143 22.5 48.9773 22.017C48.8163 21.5341 48.5346 21.1529 48.1321 20.8736C47.7344 20.5942 47.2301 20.4545 46.6193 20.4545C45.9896 20.4545 45.4025 20.625 44.858 20.9659C44.3134 21.3021 43.8589 21.7282 43.4943 22.2443C43.1297 22.7557 42.9025 23.2765 42.8125 23.8068L42.6136 25.0568C42.4716 25.9612 42.4929 26.6809 42.6776 27.2159C42.867 27.7509 43.196 28.1368 43.6648 28.3736C44.1335 28.6056 44.7206 28.7216 45.4261 28.7216C45.8759 28.7216 46.2902 28.66 46.669 28.5369C47.0478 28.4091 47.3864 28.2197 47.6847 27.9688C47.983 27.7131 48.2339 27.3958 48.4375 27.017L49.9716 27.4716C49.7112 28.0208 49.3442 28.5038 48.8707 28.9205C48.402 29.3324 47.8527 29.6544 47.223 29.8864C46.598 30.1136 45.9138 30.2273 45.1705 30.2273ZM51.5047 30L53.3229 19.0909H54.9422L54.6581 20.7386H54.7717C55.0558 20.1989 55.4891 19.7609 56.0714 19.4247C56.6538 19.0885 57.2717 18.9205 57.9251 18.9205C58.053 18.9205 58.2069 18.9228 58.3868 18.9276C58.5667 18.9276 58.7064 18.9347 58.8058 18.9489L58.5217 20.6534C58.4649 20.6392 58.3371 20.6179 58.1382 20.5895C57.9393 20.5563 57.7263 20.5398 57.499 20.5398C56.9687 20.5398 56.4786 20.651 56.0288 20.8736C55.579 21.0914 55.2026 21.3944 54.8996 21.7827C54.5965 22.1662 54.4024 22.6042 54.3172 23.0966L53.1808 30H51.5047ZM61.9582 30.2273C61.0444 30.2273 60.2774 29.9976 59.6571 29.5384C59.0368 29.0743 58.5989 28.4209 58.3432 27.5781C58.0922 26.7306 58.0615 25.7292 58.2509 24.5739C58.445 23.428 58.8072 22.4337 59.3375 21.5909C59.8725 20.7481 60.5283 20.0971 61.3048 19.6378C62.0813 19.1785 62.9289 18.9489 63.8474 18.9489C64.5577 18.9489 65.0998 19.0672 65.4739 19.304C65.8527 19.536 66.1273 19.8011 66.2977 20.0994C66.4682 20.393 66.5984 20.6345 66.6884 20.8239H66.8304L67.7253 15.4545H69.4014L66.9866 30H65.3673L65.6514 28.3239H65.4526C65.2963 28.5227 65.0785 28.7737 64.7991 29.0767C64.5198 29.375 64.1505 29.6425 63.6912 29.8793C63.2366 30.1113 62.659 30.2273 61.9582 30.2273ZM62.3702 28.7216C63.0425 28.7216 63.6438 28.5464 64.1741 28.196C64.7092 27.8409 65.1543 27.3509 65.5094 26.7259C65.8645 26.0961 66.1107 25.3693 66.248 24.5455C66.3853 23.7311 66.3806 23.0185 66.2338 22.4077C66.087 21.7921 65.8053 21.3139 65.3886 20.973C64.972 20.6274 64.4204 20.4545 63.7338 20.4545C63.0283 20.4545 62.4152 20.6368 61.8943 21.0014C61.3735 21.3613 60.9497 21.8513 60.623 22.4716C60.2963 23.0871 60.069 23.7784 59.9412 24.5455C59.8134 25.322 59.811 26.0275 59.9341 26.6619C60.0572 27.2917 60.3176 27.7936 60.7153 28.1676C61.1178 28.5369 61.6694 28.7216 62.3702 28.7216ZM72.6568 30.2557C71.9655 30.2557 71.3595 30.1255 70.8386 29.8651C70.3178 29.5999 69.9319 29.2188 69.681 28.7216C69.43 28.2197 69.3614 27.6136 69.475 26.9034C69.5839 26.2784 69.7946 25.7718 70.1071 25.3835C70.4196 24.9905 70.7984 24.6828 71.2435 24.4602C71.6933 24.233 72.1762 24.0649 72.6923 23.956C73.2132 23.8423 73.7316 23.7547 74.2477 23.6932C74.9201 23.608 75.467 23.5417 75.8884 23.4943C76.3098 23.447 76.627 23.3688 76.8401 23.2599C77.0531 23.151 77.1833 22.964 77.2307 22.6989V22.642C77.3443 21.946 77.252 21.4039 76.9537 21.0156C76.6554 20.6226 76.1227 20.4261 75.3557 20.4261C74.5602 20.4261 73.895 20.6013 73.3599 20.9517C72.8249 21.3021 72.4295 21.6761 72.1739 22.0739L70.6966 21.5057C71.0848 20.8428 71.5489 20.3267 72.0886 19.9574C72.6284 19.5833 73.1942 19.3229 73.7861 19.1761C74.3779 19.0246 74.9485 18.9489 75.4977 18.9489C75.8481 18.9489 76.2435 18.9915 76.6838 19.0767C77.1241 19.1572 77.5361 19.3253 77.9196 19.581C78.3079 19.8366 78.5991 20.2225 78.7932 20.7386C78.992 21.2547 79.0205 21.946 78.8784 22.8125L77.6852 30H76.0091L76.2648 28.5227H76.1795C76.028 28.7595 75.796 29.0128 75.4835 29.2827C75.1758 29.5526 74.7851 29.7822 74.3116 29.9716C73.8429 30.161 73.2913 30.2557 72.6568 30.2557ZM73.1398 28.75C73.8027 28.75 74.3827 28.6198 74.8798 28.3594C75.3817 28.099 75.7842 27.7628 76.0872 27.3509C76.395 26.9389 76.5867 26.5057 76.6625 26.0511L76.9182 24.517C76.833 24.6023 76.6649 24.6804 76.4139 24.7514C76.163 24.8177 75.8789 24.8769 75.5616 24.929C75.2491 24.9763 74.9438 25.0189 74.6455 25.0568C74.3519 25.09 74.1152 25.1184 73.9352 25.142C73.4902 25.1989 73.0664 25.2912 72.6639 25.419C72.2662 25.5421 71.93 25.7292 71.6554 25.9801C71.3855 26.2263 71.2174 26.5625 71.1511 26.9886C71.0517 27.571 71.1914 28.0114 71.5702 28.3097C71.949 28.6032 72.4722 28.75 73.1398 28.75ZM79.9658 34.0909C79.6817 34.0909 79.4308 34.0672 79.213 34.0199C78.9999 33.9773 78.8531 33.9347 78.7727 33.892L79.4545 32.4148C79.8427 32.5189 80.1884 32.5497 80.4914 32.5071C80.7992 32.4692 81.0904 32.3201 81.365 32.0597C81.6443 31.804 81.9355 31.4015 82.2386 30.8523L82.7073 30L80.5198 19.0909H82.267L83.8295 27.8125H83.9431L88.4033 19.0909H90.2925L83.6022 31.5767C83.2897 32.1591 82.9464 32.6349 82.5724 33.0043C82.1983 33.3736 81.7935 33.6458 81.3579 33.821C80.9223 34.0009 80.4583 34.0909 79.9658 34.0909ZM92.7365 30.2557C92.0452 30.2557 91.4392 30.1255 90.9183 29.8651C90.3975 29.5999 90.0116 29.2188 89.7607 28.7216C89.5097 28.2197 89.4411 27.6136 89.5547 26.9034C89.6636 26.2784 89.8743 25.7718 90.1868 25.3835C90.4993 24.9905 90.8781 24.6828 91.3232 24.4602C91.773 24.233 92.2559 24.0649 92.772 23.956C93.2929 23.8423 93.8113 23.7547 94.3274 23.6932C94.9998 23.608 95.5466 23.5417 95.968 23.4943C96.3894 23.447 96.7067 23.3688 96.9197 23.2599C97.1328 23.151 97.263 22.964 97.3104 22.6989V22.642C97.424 21.946 97.3317 21.4039 97.0334 21.0156C96.7351 20.6226 96.2024 20.4261 95.4354 20.4261C94.6399 20.4261 93.9747 20.6013 93.4396 20.9517C92.9046 21.3021 92.5092 21.6761 92.2536 22.0739L90.7763 21.5057C91.1645 20.8428 91.6286 20.3267 92.1683 19.9574C92.7081 19.5833 93.2739 19.3229 93.8658 19.1761C94.4576 19.0246 95.0282 18.9489 95.5774 18.9489C95.9278 18.9489 96.3232 18.9915 96.7635 19.0767C97.2038 19.1572 97.6158 19.3253 97.9993 19.581C98.3875 19.8366 98.6787 20.2225 98.8729 20.7386C99.0717 21.2547 99.1001 21.946 98.9581 22.8125L97.7649 30H96.0888L96.3445 28.5227H96.2592C96.1077 28.7595 95.8757 29.0128 95.5632 29.2827C95.2554 29.5526 94.8648 29.7822 94.3913 29.9716C93.9226 30.161 93.371 30.2557 92.7365 30.2557ZM93.2195 28.75C93.8823 28.75 94.4624 28.6198 94.9595 28.3594C95.4614 28.099 95.8639 27.7628 96.1669 27.3509C96.4747 26.9389 96.6664 26.5057 96.7422 26.0511L96.9979 24.517C96.9126 24.6023 96.7446 24.6804 96.4936 24.7514C96.2427 24.8177 95.9586 24.8769 95.6413 24.929C95.3288 24.9763 95.0234 25.0189 94.7251 25.0568C94.4316 25.09 94.1948 25.1184 94.0149 25.142C93.5698 25.1989 93.1461 25.2912 92.7436 25.419C92.3459 25.5421 92.0097 25.7292 91.7351 25.9801C91.4652 26.2263 91.2971 26.5625 91.2308 26.9886C91.1314 27.571 91.2711 28.0114 91.6499 28.3097C92.0286 28.6032 92.5518 28.75 93.2195 28.75Z" fill="#633B1F"/>
<path d="M29.0414 71V65.1818H29.9192V67.9602H29.9903L32.4306 65.1818H33.5357L31.1891 67.8011L33.5442 71H32.4874L30.6067 68.4006L29.9192 69.1903V71H29.0414ZM34.0339 71V65.1818H34.9117V67.9602H34.9828L37.4231 65.1818H38.5282L36.1816 67.8011L38.5367 71H37.4799L35.5992 68.4006L34.9117 69.1903V71H34.0339ZM43.7224 65.1818V71H42.9156L39.9582 66.733H39.9042V71H39.0264V65.1818H39.8389L42.7991 69.4545H42.8531V65.1818H43.7224ZM47.1858 67.7216V68.4602H44.6063V67.7216H47.1858ZM48.0661 71V65.1818H50.1399C50.5926 65.1818 50.9676 65.2642 51.2649 65.429C51.5623 65.5937 51.7848 65.8191 51.9326 66.1051C52.0803 66.3892 52.1542 66.7093 52.1542 67.0653C52.1542 67.4233 52.0793 67.7453 51.9297 68.0312C51.782 68.3153 51.5585 68.5407 51.2593 68.7074C50.9619 68.8722 50.5879 68.9545 50.1371 68.9545H48.711V68.2102H50.0576C50.3435 68.2102 50.5756 68.161 50.7536 68.0625C50.9316 67.9621 51.0623 67.8258 51.1456 67.6534C51.229 67.4811 51.2706 67.285 51.2706 67.0653C51.2706 66.8456 51.229 66.6506 51.1456 66.4801C51.0623 66.3097 50.9307 66.1761 50.7507 66.0795C50.5727 65.983 50.3379 65.9347 50.0462 65.9347H48.9439V71H48.0661ZM52.8633 71V65.1818H54.9371C55.3898 65.1818 55.7648 65.2642 56.0621 65.429C56.3595 65.5937 56.582 65.8191 56.7297 66.1051C56.8775 66.3892 56.9513 66.7093 56.9513 67.0653C56.9513 67.4233 56.8765 67.7453 56.7269 68.0312C56.5792 68.3153 56.3557 68.5407 56.0565 68.7074C55.7591 68.8722 55.3851 68.9545 54.9343 68.9545H53.5082V68.2102H54.8547C55.1407 68.2102 55.3727 68.161 55.5508 68.0625C55.7288 67.9621 55.8595 67.8258 55.9428 67.6534C56.0261 67.4811 56.0678 67.285 56.0678 67.0653C56.0678 66.8456 56.0261 66.6506 55.9428 66.4801C55.8595 66.3097 55.7279 66.1761 55.5479 66.0795C55.3699 65.983 55.1351 65.9347 54.8434 65.9347H53.7411V71H52.8633ZM57.6605 65.1818H58.7258L60.5781 69.7045H60.6463L62.4985 65.1818H63.5639V71H62.7286V66.7898H62.6747L60.9588 70.9915H60.2656L58.5497 66.7869H58.4957V71H57.6605V65.1818ZM70.0588 65.1818H70.9395V69.0085C70.9395 69.4157 70.8438 69.7765 70.6526 70.0909C70.4613 70.4034 70.1923 70.6496 69.8457 70.8295C69.4992 71.0076 69.0929 71.0966 68.627 71.0966C68.163 71.0966 67.7577 71.0076 67.4111 70.8295C67.0645 70.6496 66.7956 70.4034 66.6043 70.0909C66.413 69.7765 66.3173 69.4157 66.3173 69.0085V65.1818H67.1952V68.9375C67.1952 69.2008 67.2529 69.4347 67.3685 69.6392C67.4859 69.8438 67.6516 70.0047 67.8656 70.1222C68.0796 70.2377 68.3334 70.2955 68.627 70.2955C68.9224 70.2955 69.1772 70.2377 69.3912 70.1222C69.6071 70.0047 69.7719 69.8438 69.8855 69.6392C70.001 69.4347 70.0588 69.2008 70.0588 68.9375V65.1818ZM75.8333 67.0199C75.7783 66.8475 75.7045 66.6932 75.6117 66.5568C75.5208 66.4186 75.4119 66.3011 75.285 66.2045C75.1581 66.1061 75.0132 66.0312 74.8503 65.9801C74.6893 65.929 74.5122 65.9034 74.3191 65.9034C73.9914 65.9034 73.696 65.9877 73.4327 66.1562C73.1694 66.3248 72.9611 66.572 72.8077 66.8977C72.6562 67.2216 72.5804 67.6184 72.5804 68.0881C72.5804 68.5597 72.6571 68.9583 72.8105 69.2841C72.964 69.6098 73.1742 69.857 73.4412 70.0256C73.7083 70.1941 74.0122 70.2784 74.3532 70.2784C74.6694 70.2784 74.945 70.214 75.1799 70.0852C75.4166 69.9564 75.5994 69.7746 75.7282 69.5398C75.8588 69.303 75.9242 69.0246 75.9242 68.7045L76.1515 68.7472H74.4867V68.0227H76.7736V68.6847C76.7736 69.1733 76.6694 69.5975 76.4611 69.9574C76.2547 70.3153 75.9687 70.5919 75.6032 70.7869C75.2395 70.982 74.8229 71.0795 74.3532 71.0795C73.8266 71.0795 73.3645 70.9583 72.9668 70.7159C72.571 70.4735 72.2622 70.1297 72.0407 69.6847C71.8191 69.2377 71.7083 68.7074 71.7083 68.0938C71.7083 67.6297 71.7727 67.2131 71.9015 66.8438C72.0302 66.4744 72.2111 66.161 72.4441 65.9034C72.6789 65.6439 72.9545 65.446 73.2708 65.3097C73.589 65.1714 73.9365 65.1023 74.3134 65.1023C74.6278 65.1023 74.9204 65.1487 75.1912 65.2415C75.464 65.3343 75.7064 65.4659 75.9185 65.6364C76.1325 65.8068 76.3096 66.0095 76.4497 66.2443C76.5899 66.4773 76.6846 66.7358 76.7338 67.0199H75.8333ZM77.568 65.1818H78.6333L80.4856 69.7045H80.5538L82.406 65.1818H83.4714V71H82.6361V66.7898H82.5822L80.8663 70.9915H80.1731L78.4572 66.7869H78.4032V71H77.568V65.1818ZM86.2248 71V65.1818H88.2987C88.7513 65.1818 89.1263 65.2642 89.4237 65.429C89.721 65.5937 89.9436 65.8191 90.0913 66.1051C90.239 66.3892 90.3129 66.7093 90.3129 67.0653C90.3129 67.4233 90.2381 67.7453 90.0885 68.0312C89.9407 68.3153 89.7173 68.5407 89.418 68.7074C89.1207 68.8722 88.7466 68.9545 88.2959 68.9545H86.8697V68.2102H88.2163C88.5023 68.2102 88.7343 68.161 88.9123 68.0625C89.0904 67.9621 89.221 67.8258 89.3044 67.6534C89.3877 67.4811 89.4294 67.285 89.4294 67.0653C89.4294 66.8456 89.3877 66.6506 89.3044 66.4801C89.221 66.3097 89.0894 66.1761 88.9095 66.0795C88.7315 65.983 88.4966 65.9347 88.2049 65.9347H87.1027V71H86.2248ZM92.1847 71.0966C91.9081 71.0966 91.6581 71.0455 91.4347 70.9432C91.2112 70.839 91.0341 70.6884 90.9034 70.4915C90.7746 70.2945 90.7102 70.053 90.7102 69.767C90.7102 69.5208 90.7576 69.3182 90.8523 69.1591C90.947 69 91.0748 68.8741 91.2358 68.7812C91.3968 68.6884 91.5767 68.6184 91.7756 68.571C91.9744 68.5237 92.1771 68.4877 92.3835 68.4631C92.6449 68.4328 92.857 68.4081 93.0199 68.3892C93.1828 68.3684 93.3011 68.3352 93.375 68.2898C93.4489 68.2443 93.4858 68.1705 93.4858 68.0682V68.0483C93.4858 67.8002 93.4157 67.608 93.2756 67.4716C93.1373 67.3352 92.9309 67.267 92.6563 67.267C92.3703 67.267 92.1449 67.3305 91.9801 67.4574C91.8172 67.5824 91.7045 67.7216 91.642 67.875L90.8438 67.6932C90.9385 67.428 91.0767 67.214 91.2585 67.0511C91.4422 66.8864 91.6534 66.767 91.892 66.6932C92.1307 66.6174 92.3816 66.5795 92.6449 66.5795C92.8191 66.5795 93.0038 66.6004 93.1989 66.642C93.3958 66.6818 93.5795 66.7557 93.75 66.8636C93.9224 66.9716 94.0635 67.1259 94.1733 67.3267C94.2831 67.5256 94.3381 67.7841 94.3381 68.1023V71H93.5085V70.4034H93.4744C93.4195 70.5133 93.3371 70.6212 93.2273 70.7273C93.1174 70.8333 92.9763 70.9214 92.804 70.9915C92.6316 71.0616 92.4252 71.0966 92.1847 71.0966ZM92.3693 70.4148C92.6042 70.4148 92.8049 70.3684 92.9716 70.2756C93.1402 70.1828 93.268 70.0616 93.3551 69.9119C93.4441 69.7604 93.4886 69.5985 93.4886 69.4261V68.8636C93.4583 68.8939 93.3996 68.9223 93.3125 68.9489C93.2273 68.9735 93.1297 68.9953 93.0199 69.0142C92.91 69.0312 92.803 69.0473 92.6989 69.0625C92.5947 69.0758 92.5076 69.0871 92.4375 69.0966C92.2727 69.1174 92.1222 69.1525 91.9858 69.2017C91.8513 69.2509 91.7434 69.322 91.6619 69.4148C91.5824 69.5057 91.5426 69.6269 91.5426 69.7784C91.5426 69.9886 91.6203 70.1477 91.7756 70.2557C91.9309 70.3617 92.1288 70.4148 92.3693 70.4148ZM95.9307 69.5199L95.925 68.483H96.0728L97.8114 66.6364H98.8284L96.8455 68.7386H96.712L95.9307 69.5199ZM95.1495 71V65.1818H95.9989V71H95.1495ZM97.9051 71L96.3426 68.9261L96.9279 68.3324L98.9478 71H97.9051ZM100.984 71.0881C100.554 71.0881 100.183 70.9962 99.8728 70.8125C99.5641 70.6269 99.3254 70.3665 99.1569 70.0312C98.9902 69.6941 98.9069 69.2992 98.9069 68.8466C98.9069 68.3996 98.9902 68.0057 99.1569 67.6648C99.3254 67.3239 99.5603 67.0578 99.8614 66.8665C100.164 66.6752 100.519 66.5795 100.924 66.5795C101.17 66.5795 101.409 66.6203 101.64 66.7017C101.871 66.7831 102.078 66.911 102.262 67.0852C102.446 67.2595 102.591 67.4858 102.697 67.7642C102.803 68.0407 102.856 68.3769 102.856 68.7727V69.0739H99.387V68.4375H102.023C102.023 68.214 101.978 68.0161 101.887 67.8438C101.796 67.6695 101.668 67.5322 101.503 67.4318C101.341 67.3314 101.149 67.2812 100.93 67.2812C100.691 67.2812 100.483 67.34 100.305 67.4574C100.128 67.5729 99.9921 67.7244 99.8955 67.9119C99.8008 68.0975 99.7535 68.2992 99.7535 68.517V69.0142C99.7535 69.3059 99.8046 69.554 99.9069 69.7585C100.011 69.9631 100.156 70.1193 100.342 70.2273C100.527 70.3333 100.744 70.3864 100.992 70.3864C101.153 70.3864 101.3 70.3636 101.432 70.3182C101.565 70.2708 101.68 70.2008 101.776 70.108C101.873 70.0152 101.947 69.9006 101.998 69.7642L102.802 69.9091C102.737 70.1458 102.622 70.3532 102.455 70.5312C102.29 70.7074 102.083 70.8447 101.833 70.9432C101.585 71.0398 101.302 71.0881 100.984 71.0881ZM103.478 71V66.6364H104.294V67.3466H104.348C104.438 67.1061 104.587 66.9186 104.794 66.7841C105 66.6477 105.247 66.5795 105.535 66.5795C105.827 66.5795 106.071 66.6477 106.268 66.7841C106.467 66.9205 106.614 67.108 106.708 67.3466H106.754C106.858 67.1136 107.024 66.928 107.251 66.7898C107.478 66.6496 107.749 66.5795 108.063 66.5795C108.459 66.5795 108.782 66.7036 109.032 66.9517C109.284 67.1998 109.41 67.5739 109.41 68.0739V71H108.561V68.1534C108.561 67.858 108.48 67.6439 108.319 67.5114C108.158 67.3788 107.966 67.3125 107.742 67.3125C107.466 67.3125 107.251 67.3977 107.098 67.5682C106.944 67.7367 106.867 67.9536 106.867 68.2188V71H106.021V68.0994C106.021 67.8627 105.947 67.6723 105.799 67.5284C105.652 67.3845 105.459 67.3125 105.223 67.3125C105.062 67.3125 104.913 67.3551 104.777 67.4403C104.642 67.5237 104.533 67.6402 104.45 67.7898C104.368 67.9394 104.328 68.1127 104.328 68.3097V71H103.478ZM112.8 68.1733V68.9091H110.22V68.1733H112.8ZM113.68 65.1818H114.745L116.597 69.7045H116.666L118.518 65.1818H119.583V71H118.748V66.7898H118.694L116.978 70.9915H116.285L114.569 66.7869H114.515V71H113.68V65.1818ZM121.741 71.0966C121.465 71.0966 121.215 71.0455 120.991 70.9432C120.768 70.839 120.591 70.6884 120.46 70.4915C120.331 70.2945 120.267 70.053 120.267 69.767C120.267 69.5208 120.314 69.3182 120.409 69.1591C120.504 69 120.631 68.8741 120.792 68.7812C120.953 68.6884 121.133 68.6184 121.332 68.571C121.531 68.5237 121.734 68.4877 121.94 68.4631C122.201 68.4328 122.414 68.4081 122.576 68.3892C122.739 68.3684 122.858 68.3352 122.932 68.2898C123.005 68.2443 123.042 68.1705 123.042 68.0682V68.0483C123.042 67.8002 122.972 67.608 122.832 67.4716C122.694 67.3352 122.487 67.267 122.213 67.267C121.927 67.267 121.701 67.3305 121.537 67.4574C121.374 67.5824 121.261 67.7216 121.199 67.875L120.4 67.6932C120.495 67.428 120.633 67.214 120.815 67.0511C120.999 66.8864 121.21 66.767 121.449 66.6932C121.687 66.6174 121.938 66.5795 122.201 66.5795C122.376 66.5795 122.56 66.6004 122.755 66.642C122.952 66.6818 123.136 66.7557 123.307 66.8636C123.479 66.9716 123.62 67.1259 123.73 67.3267C123.84 67.5256 123.895 67.7841 123.895 68.1023V71H123.065V70.4034H123.031C122.976 70.5133 122.894 70.6212 122.784 70.7273C122.674 70.8333 122.533 70.9214 122.361 70.9915C122.188 71.0616 121.982 71.0966 121.741 71.0966ZM121.926 70.4148C122.161 70.4148 122.361 70.3684 122.528 70.2756C122.697 70.1828 122.825 70.0616 122.912 69.9119C123.001 69.7604 123.045 69.5985 123.045 69.4261V68.8636C123.015 68.8939 122.956 68.9223 122.869 68.9489C122.784 68.9735 122.686 68.9953 122.576 69.0142C122.467 69.0312 122.36 69.0473 122.255 69.0625C122.151 69.0758 122.064 69.0871 121.994 69.0966C121.829 69.1174 121.679 69.1525 121.542 69.2017C121.408 69.2509 121.3 69.322 121.218 69.4148C121.139 69.5057 121.099 69.6269 121.099 69.7784C121.099 69.9886 121.177 70.1477 121.332 70.2557C121.487 70.3617 121.685 70.4148 121.926 70.4148ZM124.706 71V66.6364H125.527V67.3295H125.573C125.652 67.0947 125.792 66.91 125.993 66.7756C126.196 66.6392 126.425 66.571 126.68 66.571C126.733 66.571 126.796 66.5729 126.868 66.5767C126.942 66.5805 127 66.5852 127.041 66.5909V67.4034C127.007 67.3939 126.947 67.3835 126.859 67.3722C126.772 67.3589 126.685 67.3523 126.598 67.3523C126.397 67.3523 126.218 67.3949 126.061 67.4801C125.906 67.5634 125.783 67.6799 125.692 67.8295C125.601 67.9773 125.555 68.1458 125.555 68.3352V71H124.706ZM129.181 71.0881C128.751 71.0881 128.381 70.9962 128.07 70.8125C127.761 70.6269 127.523 70.3665 127.354 70.0312C127.187 69.6941 127.104 69.2992 127.104 68.8466C127.104 68.3996 127.187 68.0057 127.354 67.6648C127.523 67.3239 127.757 67.0578 128.059 66.8665C128.362 66.6752 128.716 66.5795 129.121 66.5795C129.367 66.5795 129.606 66.6203 129.837 66.7017C130.068 66.7831 130.275 66.911 130.459 67.0852C130.643 67.2595 130.788 67.4858 130.894 67.7642C131 68.0407 131.053 68.3769 131.053 68.7727V69.0739H127.584V68.4375H130.221C130.221 68.214 130.175 68.0161 130.084 67.8438C129.993 67.6695 129.865 67.5322 129.701 67.4318C129.538 67.3314 129.346 67.2812 129.127 67.2812C128.888 67.2812 128.68 67.34 128.502 67.4574C128.326 67.5729 128.189 67.7244 128.093 67.9119C127.998 68.0975 127.951 68.2992 127.951 68.517V69.0142C127.951 69.3059 128.002 69.554 128.104 69.7585C128.208 69.9631 128.353 70.1193 128.539 70.2273C128.724 70.3333 128.941 70.3864 129.189 70.3864C129.35 70.3864 129.497 70.3636 129.63 70.3182C129.762 70.2708 129.877 70.2008 129.973 70.108C130.07 70.0152 130.144 69.9006 130.195 69.7642L130.999 69.9091C130.935 70.1458 130.819 70.3532 130.652 70.5312C130.488 70.7074 130.28 70.8447 130.03 70.9432C129.782 71.0398 129.499 71.0881 129.181 71.0881ZM131.675 71V66.6364H132.491V67.3466H132.545C132.636 67.1061 132.784 66.9186 132.991 66.7841C133.197 66.6477 133.444 66.5795 133.732 66.5795C134.024 66.5795 134.268 66.6477 134.465 66.7841C134.664 66.9205 134.811 67.108 134.906 67.3466H134.951C135.055 67.1136 135.221 66.928 135.448 66.7898C135.675 66.6496 135.946 66.5795 136.261 66.5795C136.656 66.5795 136.979 66.7036 137.229 66.9517C137.481 67.1998 137.607 67.5739 137.607 68.0739V71H136.758V68.1534C136.758 67.858 136.677 67.6439 136.516 67.5114C136.355 67.3788 136.163 67.3125 135.94 67.3125C135.663 67.3125 135.448 67.3977 135.295 67.5682C135.141 67.7367 135.065 67.9536 135.065 68.2188V71H134.218V68.0994C134.218 67.8627 134.144 67.6723 133.996 67.5284C133.849 67.3845 133.656 67.3125 133.42 67.3125C133.259 67.3125 133.11 67.3551 132.974 67.4403C132.839 67.5237 132.73 67.6402 132.647 67.7898C132.566 67.9394 132.525 68.1127 132.525 68.3097V71H131.675ZM140.291 71V65.1818H142.365C142.818 65.1818 143.193 65.2642 143.49 65.429C143.787 65.5937 144.01 65.8191 144.158 66.1051C144.305 66.3892 144.379 66.7093 144.379 67.0653C144.379 67.4233 144.304 67.7453 144.155 68.0312C144.007 68.3153 143.784 68.5407 143.484 68.7074C143.187 68.8722 142.813 68.9545 142.362 68.9545H140.936V68.2102H142.283C142.569 68.2102 142.801 68.161 142.979 68.0625C143.157 67.9621 143.287 67.8258 143.371 67.6534C143.454 67.4811 143.496 67.285 143.496 67.0653C143.496 66.8456 143.454 66.6506 143.371 66.4801C143.287 66.3097 143.156 66.1761 142.976 66.0795C142.798 65.983 142.563 65.9347 142.271 65.9347H141.169V71H140.291ZM146.846 71.0881C146.416 71.0881 146.046 70.9962 145.735 70.8125C145.427 70.6269 145.188 70.3665 145.019 70.0312C144.853 69.6941 144.769 69.2992 144.769 68.8466C144.769 68.3996 144.853 68.0057 145.019 67.6648C145.188 67.3239 145.423 67.0578 145.724 66.8665C146.027 66.6752 146.381 66.5795 146.786 66.5795C147.033 66.5795 147.271 66.6203 147.502 66.7017C147.733 66.7831 147.941 66.911 148.124 67.0852C148.308 67.2595 148.453 67.4858 148.559 67.7642C148.665 68.0407 148.718 68.3769 148.718 68.7727V69.0739H145.249V68.4375H147.886C147.886 68.214 147.84 68.0161 147.749 67.8438C147.659 67.6695 147.531 67.5322 147.366 67.4318C147.203 67.3314 147.012 67.2812 146.792 67.2812C146.553 67.2812 146.345 67.34 146.167 67.4574C145.991 67.5729 145.855 67.7244 145.758 67.9119C145.663 68.0975 145.616 68.2992 145.616 68.517V69.0142C145.616 69.3059 145.667 69.554 145.769 69.7585C145.874 69.9631 146.018 70.1193 146.204 70.2273C146.39 70.3333 146.606 70.3864 146.855 70.3864C147.016 70.3864 147.162 70.3636 147.295 70.3182C147.428 70.2708 147.542 70.2008 147.639 70.108C147.735 70.0152 147.809 69.9006 147.86 69.7642L148.664 69.9091C148.6 70.1458 148.484 70.3532 148.318 70.5312C148.153 70.7074 147.946 70.8447 147.696 70.9432C147.447 71.0398 147.164 71.0881 146.846 71.0881ZM149.341 71V66.6364H150.162V67.3295H150.207C150.287 67.0947 150.427 66.91 150.628 66.7756C150.83 66.6392 151.059 66.571 151.315 66.571C151.368 66.571 151.431 66.5729 151.503 66.5767C151.577 66.5805 151.634 66.5852 151.676 66.5909V67.4034C151.642 67.3939 151.581 67.3835 151.494 67.3722C151.407 67.3589 151.32 67.3523 151.233 67.3523C151.032 67.3523 150.853 67.3949 150.696 67.4801C150.541 67.5634 150.417 67.6799 150.327 67.8295C150.236 67.9773 150.19 68.1458 150.19 68.3352V71H149.341ZM152.091 71V66.6364H152.94V71H152.091ZM152.52 65.9631C152.372 65.9631 152.245 65.9138 152.139 65.8153C152.035 65.715 151.983 65.5956 151.983 65.4574C151.983 65.3172 152.035 65.1979 152.139 65.0994C152.245 64.9991 152.372 64.9489 152.52 64.9489C152.668 64.9489 152.794 64.9991 152.898 65.0994C153.004 65.1979 153.057 65.3172 153.057 65.4574C153.057 65.5956 153.004 65.715 152.898 65.8153C152.794 65.9138 152.668 65.9631 152.52 65.9631ZM155.601 71.0881C155.192 71.0881 154.835 70.9943 154.53 70.8068C154.225 70.6193 153.989 70.357 153.82 70.0199C153.651 69.6828 153.567 69.2888 153.567 68.8381C153.567 68.3854 153.651 67.9896 153.82 67.6506C153.989 67.3116 154.225 67.0483 154.53 66.8608C154.835 66.6733 155.192 66.5795 155.601 66.5795C156.01 66.5795 156.367 66.6733 156.672 66.8608C156.977 67.0483 157.214 67.3116 157.383 67.6506C157.551 67.9896 157.635 68.3854 157.635 68.8381C157.635 69.2888 157.551 69.6828 157.383 70.0199C157.214 70.357 156.977 70.6193 156.672 70.8068C156.367 70.9943 156.01 71.0881 155.601 71.0881ZM155.604 70.375C155.869 70.375 156.089 70.3049 156.263 70.1648C156.437 70.0246 156.566 69.8381 156.65 69.6051C156.735 69.3722 156.777 69.1155 156.777 68.8352C156.777 68.5568 156.735 68.3011 156.65 68.0682C156.566 67.8333 156.437 67.6449 156.263 67.5028C156.089 67.3608 155.869 67.2898 155.604 67.2898C155.337 67.2898 155.115 67.3608 154.939 67.5028C154.765 67.6449 154.635 67.8333 154.55 68.0682C154.467 68.3011 154.425 68.5568 154.425 68.8352C154.425 69.1155 154.467 69.3722 154.55 69.6051C154.635 69.8381 154.765 70.0246 154.939 70.1648C155.115 70.3049 155.337 70.375 155.604 70.375ZM159.897 71.0852C159.545 71.0852 159.23 70.9953 158.954 70.8153C158.679 70.6335 158.463 70.375 158.306 70.0398C158.151 69.7027 158.073 69.2983 158.073 68.8267C158.073 68.3551 158.152 67.9517 158.309 67.6165C158.468 67.2812 158.686 67.0246 158.962 66.8466C159.239 66.6686 159.552 66.5795 159.903 66.5795C160.174 66.5795 160.391 66.625 160.556 66.7159C160.723 66.8049 160.852 66.9091 160.943 67.0284C161.035 67.1477 161.107 67.2528 161.158 67.3438H161.21V65.1818H162.059V71H161.229V70.321H161.158C161.107 70.4138 161.033 70.5199 160.937 70.6392C160.842 70.7585 160.711 70.8627 160.545 70.9517C160.378 71.0407 160.162 71.0852 159.897 71.0852ZM160.085 70.3608C160.329 70.3608 160.535 70.2964 160.704 70.1676C160.874 70.0369 161.003 69.8561 161.09 69.625C161.179 69.3939 161.224 69.125 161.224 68.8182C161.224 68.5152 161.18 68.25 161.093 68.0227C161.006 67.7955 160.878 67.6184 160.71 67.4915C160.541 67.3646 160.333 67.3011 160.085 67.3011C159.829 67.3011 159.616 67.3674 159.445 67.5C159.275 67.6326 159.146 67.8134 159.059 68.0426C158.974 68.2718 158.931 68.5303 158.931 68.8182C158.931 69.1098 158.975 69.3722 159.062 69.6051C159.149 69.8381 159.278 70.0227 159.448 70.1591C159.621 70.2936 159.833 70.3608 160.085 70.3608ZM164.832 71.0881C164.402 71.0881 164.032 70.9962 163.721 70.8125C163.413 70.6269 163.174 70.3665 163.005 70.0312C162.839 69.6941 162.755 69.2992 162.755 68.8466C162.755 68.3996 162.839 68.0057 163.005 67.6648C163.174 67.3239 163.409 67.0578 163.71 66.8665C164.013 66.6752 164.367 66.5795 164.772 66.5795C165.019 66.5795 165.257 66.6203 165.488 66.7017C165.719 66.7831 165.927 66.911 166.11 67.0852C166.294 67.2595 166.439 67.4858 166.545 67.7642C166.651 68.0407 166.704 68.3769 166.704 68.7727V69.0739H163.235V68.4375H165.872C165.872 68.214 165.826 68.0161 165.735 67.8438C165.645 67.6695 165.517 67.5322 165.352 67.4318C165.189 67.3314 164.998 67.2812 164.778 67.2812C164.539 67.2812 164.331 67.34 164.153 67.4574C163.977 67.5729 163.841 67.7244 163.744 67.9119C163.649 68.0975 163.602 68.2992 163.602 68.517V69.0142C163.602 69.3059 163.653 69.554 163.755 69.7585C163.859 69.9631 164.004 70.1193 164.19 70.2273C164.376 70.3333 164.592 70.3864 164.841 70.3864C165.002 70.3864 165.148 70.3636 165.281 70.3182C165.413 70.2708 165.528 70.2008 165.625 70.108C165.721 70.0152 165.795 69.9006 165.846 69.7642L166.65 69.9091C166.586 70.1458 166.47 70.3532 166.304 70.5312C166.139 70.7074 165.931 70.8447 165.681 70.9432C165.433 71.0398 165.15 71.0881 164.832 71.0881ZM170.07 65.1818V71H169.192V65.1818H170.07ZM171.906 65.1818V71H171.028V65.1818H171.906ZM174.582 71V70.3636L176.551 68.3239C176.761 68.1023 176.934 67.9081 177.071 67.7415C177.209 67.5729 177.312 67.4129 177.38 67.2614C177.449 67.1098 177.483 66.9489 177.483 66.7784C177.483 66.5852 177.437 66.4186 177.346 66.2784C177.255 66.1364 177.131 66.0275 176.974 65.9517C176.817 65.8741 176.64 65.8352 176.443 65.8352C176.235 65.8352 176.053 65.8778 175.898 65.9631C175.742 66.0483 175.623 66.1686 175.54 66.3239C175.456 66.4792 175.415 66.661 175.415 66.8693H174.576C174.576 66.5152 174.658 66.2055 174.821 65.9403C174.984 65.6752 175.207 65.4697 175.491 65.3239C175.775 65.1761 176.098 65.1023 176.46 65.1023C176.826 65.1023 177.148 65.1752 177.426 65.321C177.706 65.465 177.925 65.6619 178.082 65.9119C178.239 66.16 178.318 66.4403 178.318 66.7528C178.318 66.9688 178.277 67.1799 178.196 67.3864C178.116 67.5928 177.977 67.8229 177.778 68.0767C177.579 68.3286 177.303 68.6345 176.949 68.9943L175.792 70.2045V70.2472H178.412V71H174.582ZM181.194 71.0966C180.745 71.0947 180.362 70.9763 180.043 70.7415C179.725 70.5066 179.482 70.1648 179.313 69.7159C179.145 69.267 179.06 68.7263 179.06 68.0938C179.06 67.4631 179.145 66.9242 179.313 66.4773C179.484 66.0303 179.728 65.6894 180.046 65.4545C180.366 65.2197 180.749 65.1023 181.194 65.1023C181.639 65.1023 182.021 65.2206 182.339 65.4574C182.657 65.6922 182.9 66.0331 183.069 66.4801C183.239 66.9252 183.325 67.4631 183.325 68.0938C183.325 68.7282 183.24 69.2699 183.072 69.7188C182.903 70.1657 182.66 70.5076 182.342 70.7443C182.024 70.9792 181.641 71.0966 181.194 71.0966ZM181.194 70.3381C181.588 70.3381 181.896 70.1458 182.117 69.7614C182.341 69.3769 182.452 68.821 182.452 68.0938C182.452 67.6108 182.401 67.2027 182.299 66.8693C182.199 66.5341 182.054 66.2803 181.864 66.108C181.677 65.9337 181.453 65.8466 181.194 65.8466C180.802 65.8466 180.494 66.0398 180.271 66.4261C180.047 66.8125 179.935 67.3684 179.933 68.0938C179.933 68.5786 179.983 68.9886 180.083 69.3239C180.185 69.6572 180.33 69.91 180.518 70.0824C180.705 70.2528 180.931 70.3381 181.194 70.3381ZM184.012 71V70.3636L185.981 68.3239C186.191 68.1023 186.365 67.9081 186.501 67.7415C186.639 67.5729 186.743 67.4129 186.811 67.2614C186.879 67.1098 186.913 66.9489 186.913 66.7784C186.913 66.5852 186.868 66.4186 186.777 66.2784C186.686 66.1364 186.562 66.0275 186.405 65.9517C186.247 65.8741 186.07 65.8352 185.873 65.8352C185.665 65.8352 185.483 65.8778 185.328 65.9631C185.173 66.0483 185.053 66.1686 184.97 66.3239C184.887 66.4792 184.845 66.661 184.845 66.8693H184.007C184.007 66.5152 184.088 66.2055 184.251 65.9403C184.414 65.6752 184.637 65.4697 184.922 65.3239C185.206 65.1761 185.529 65.1023 185.89 65.1023C186.256 65.1023 186.578 65.1752 186.856 65.321C187.137 65.465 187.355 65.6619 187.512 65.9119C187.67 66.16 187.748 66.4403 187.748 66.7528C187.748 66.9688 187.708 67.1799 187.626 67.3864C187.547 67.5928 187.407 67.8229 187.209 68.0767C187.01 68.3286 186.733 68.6345 186.379 68.9943L185.223 70.2045V70.2472H187.842V71H184.012ZM190.519 71.0795C190.163 71.0795 189.843 71.0114 189.559 70.875C189.277 70.7367 189.051 70.5473 188.883 70.3068C188.714 70.0663 188.624 69.7917 188.613 69.483H189.465C189.486 69.733 189.597 69.9384 189.798 70.0994C189.998 70.2604 190.239 70.3409 190.519 70.3409C190.743 70.3409 190.941 70.2898 191.113 70.1875C191.287 70.0833 191.424 69.9403 191.522 69.7585C191.622 69.5767 191.673 69.3693 191.673 69.1364C191.673 68.8996 191.621 68.6884 191.519 68.5028C191.417 68.3172 191.276 68.1714 191.096 68.0653C190.918 67.9593 190.713 67.9053 190.482 67.9034C190.306 67.9034 190.129 67.9337 189.951 67.9943C189.773 68.0549 189.629 68.1345 189.519 68.233L188.715 68.1136L189.042 65.1818H192.241V65.9347H189.772L189.587 67.5625H189.621C189.735 67.4527 189.886 67.3608 190.073 67.2869C190.263 67.2131 190.465 67.1761 190.681 67.1761C191.035 67.1761 191.351 67.2604 191.627 67.429C191.906 67.5975 192.124 67.8277 192.283 68.1193C192.444 68.4091 192.524 68.7424 192.522 69.1193C192.524 69.4962 192.439 69.8324 192.266 70.1278C192.096 70.4233 191.859 70.6562 191.556 70.8267C191.255 70.9953 190.909 71.0795 190.519 71.0795Z" fill="#5D5DA8"/>
</svg>
